<svg height='100px' width='100px'  fill="#6c63ff" xmlns="http://www.w3.org/2000/svg" viewBox="0 0 100 100" x="0px" y="0px"><title>icons_done</title><path d="M95.32,87.3a1.25,1.25,0,0,1-1.25,1.25H5.71a1.18,1.18,0,0,1-.19,0,1.18,1.18,0,0,1-.19,0A1.25,1.25,0,0,1,4.08,87.3V15.81a1.25,1.25,0,0,1,2.5,0V86h8V81.3a1.25,1.25,0,0,1,2.5,0V86h8.82V81.3a1.25,1.25,0,0,1,2.5,0V86h8.81V81.3a1.25,1.25,0,0,1,2.5,0V86H48.5V81.3a1.25,1.25,0,0,1,2.5,0V86h8.81V81.3a1.25,1.25,0,0,1,2.5,0V86h8.82V81.3a1.25,1.25,0,0,1,2.5,0V86h8.81V81.3a1.25,1.25,0,0,1,2.5,0V86h9.12A1.25,1.25,0,0,1,95.32,87.3ZM14.61,21.63a7.08,7.08,0,0,1,7.07-7.07H42.81a7.07,7.07,0,1,1,0,14.15H21.68A7.08,7.08,0,0,1,14.61,21.63Zm2.5,0a4.58,4.58,0,0,0,4.57,4.57H42.81a4.57,4.57,0,1,0,0-9.15H21.68A4.58,4.58,0,0,0,17.11,21.63ZM32.18,35.09h32.9a7.07,7.07,0,0,1,0,14.15H32.18A7.07,7.07,0,0,1,32.18,35.09Zm32.9,2.5H32.18a4.57,4.57,0,0,0,0,9.15h32.9A4.57,4.57,0,0,0,65.08,37.59ZM66.29,54.4H84.53a7.07,7.07,0,1,1,0,14.15H66.29A7.07,7.07,0,1,1,66.29,54.4Zm18.23,2.5H66.29a4.57,4.57,0,1,0,0,9.15H84.53A4.57,4.57,0,1,0,84.53,56.9Z"></path></svg>